<svg id="图层_1" data-name="图层 1" xmlns="http://www.w3.org/2000/svg" viewBox="0 0 143.88 158.95"><defs><style>.cls-1{fill:#fff;}</style></defs><title>任务</title><path class="cls-1" d="M27,15.1c-11.39,29.71-9.68,62.12-10,93.34-.1,9.24-.41,18.48-1.29,27.68-.25,2.61,2.48,5.11,5,5a5.15,5.15,0,0,0,5-5C27.23,120,27,103.8,27.05,87.64c0-7.85.16-15.69.61-23.52.22-3.72.5-7.44.89-11.15.1-.93.2-1.85.31-2.78.06-.46.12-.92.17-1.38,0-.12.22-1.65.07-.52q.41-3,.92-6a130.71,130.71,0,0,1,6.63-24.58c.93-2.44-1-5.59-3.5-6.15A5.15,5.15,0,0,0,27,15.1Z" transform="translate(-14.12 -1)"/><path class="cls-1" d="M36.84,15.24c15.33-.08,30.55-2,45.81-3.2,7.6-.62,15.23-1.07,22.86-1a198.21,198.21,0,0,1,22.71,1.68c8.73,1,17.42,1.73,26.11-.07l-4.87-8.35c-6.44,6.52-12.9,13.17-17.84,20.94-5.24,8.25-7.71,17.56-9.62,27-4,19.86-6.27,40-7.88,60.21-.9,11.26-1.6,22.54-2.3,33.81a5,5,0,0,0,5,5,5.11,5.11,0,0,0,5-5c1.21-19.62,2.43-39.25,4.72-58.79.28-2.41.58-4.83.9-7.24l.12-1c0,.1-.09.72,0,.13l.27-1.93c.17-1.21.34-2.41.52-3.62q1.09-7.34,2.46-14.64c.88-4.66,1.79-9.34,3-13.92a67.8,67.8,0,0,1,2.2-6.87c.08-.22.17-.44.25-.65s.43-1,.2-.48.1-.22.12-.26c.12-.26.23-.52.36-.78.48-1,1-2.05,1.56-3.05a62.32,62.32,0,0,1,3.91-6.13l1-1.38c.11-.15.58-.74,0,0L144,25c.76-1,1.54-1.9,2.33-2.82,3.25-3.77,6.73-7.32,10.23-10.85a5.08,5.08,0,0,0,.78-6.06A5.24,5.24,0,0,0,151.67,3c-.94.2-1.88.37-2.82.5,1.09-.15-.46,0-.56,0l-1.42.13c-1.9.13-3.81.16-5.71.12-3.69-.08-7.36-.44-11-.86C122.74,2.05,115.4,1.17,108,1,92.81.75,77.74,2.5,62.68,3.83c-8.59.76-17.21,1.37-25.84,1.41a5.05,5.05,0,0,0-5,5,5.08,5.08,0,0,0,5,5Z" transform="translate(-14.12 -1)"/><path class="cls-1" d="M17.74,143.63c7.37,1.42,14.83,2.32,22.29,3.16,3.55.39,7.1.78,10.64,1.21l2.6.33,1.18.15c-1.1-.15.46.07.55.08,1.89.27,3.76.55,5.64.87a181.43,181.43,0,0,1,20.78,5.09,130.63,130.63,0,0,0,21.86,4.73,58.39,58.39,0,0,0,11.66.58,12.18,12.18,0,0,0,7.26-2.8,9.24,9.24,0,0,0,3.1-6.61,5,5,0,0,0-5-5,5.11,5.11,0,0,0-5,5c.09-1.52-.32.49.23-.82-.42,1,.46-.46,0,0s1-.49,0,0,.71-.08,0,.05c-.34,0-.69.18-1,.25,1.18-.26-.12,0-.36,0-.8,0-1.62,0-2.42,0-1.69-.05-3.37-.15-5-.29-.8-.06-1.6-.14-2.4-.23l-1-.1-1-.12c.53.07.5.07-.1,0a140.69,140.69,0,0,1-19.53-4.63,167,167,0,0,0-19.87-4.77C56,138.57,49.06,137.79,42.16,137c-3.79-.42-7.57-.85-11.35-1.34-1-.13-.3,0-.09,0l-1.88-.27c-.94-.13-1.88-.28-2.82-.42q-2.82-.45-5.63-1c-2.56-.5-5.51.72-6.15,3.49-.56,2.47.75,5.62,3.5,6.15Z" transform="translate(-14.12 -1)"/><path class="cls-1" d="M36.91,40.61,34.75,52.39a5.37,5.37,0,0,0,.5,3.85,5.1,5.1,0,0,0,3,2.3A5,5,0,0,0,42.09,58a4.9,4.9,0,0,0,2.3-3l2.16-11.78a5.39,5.39,0,0,0-.5-3.86,5.12,5.12,0,0,0-3-2.29,5.07,5.07,0,0,0-3.85.5,4.9,4.9,0,0,0-2.3,3Z" transform="translate(-14.12 -1)"/><path class="cls-1" d="M44.08,46.83a46.63,46.63,0,0,1,6-1.58l-1.33.17a3.37,3.37,0,0,1,.71,0l-1.33-.18a1.65,1.65,0,0,1,.32.07l-1.19-.5a.76.76,0,0,1,.26.16l-1-.79.11.12-.79-1,.08.14-.5-1.2,0,.23-.18-1.33v.23L45.49,40c-.13.56-.39,1.07-.53,1.62a18,18,0,0,0-.39,2.53,22.77,22.77,0,0,0,0,3.2l.3,6.94,6.33-4.82a85.29,85.29,0,0,0-12.1-1.89,5,5,0,0,0-3.54,1.46,5,5,0,0,0,0,7.07,5.58,5.58,0,0,0,3.54,1.47c1.24.11,2.47.24,3.7.41l-1.33-.18c2.38.32,4.74.76,7.07,1.3a5,5,0,0,0,4.36-.9,4.8,4.8,0,0,0,2-3.92L54.61,49a31.41,31.41,0,0,1,0-5l-.18,1.33a8.55,8.55,0,0,1,.4-1.66,6.36,6.36,0,0,0,.33-3.81,5.93,5.93,0,0,0-5.91-4.39,20.6,20.6,0,0,0-4.26.77c-1.2.3-2.39.64-3.56,1a5.3,5.3,0,0,0-3,2.3,5,5,0,0,0,5.65,7.35Z" transform="translate(-14.12 -1)"/><path class="cls-1" d="M33.52,71.45q-.12,5.2.07,10.41a5.23,5.23,0,0,0,1.46,3.53,5.11,5.11,0,0,0,3.54,1.47,5,5,0,0,0,5-5q-.2-5.2-.07-10.41a5.14,5.14,0,0,0-1.46-3.54,5,5,0,0,0-8.54,3.54Z" transform="translate(-14.12 -1)"/><path class="cls-1" d="M36.72,72.1A13.57,13.57,0,0,0,42,75a13.78,13.78,0,0,0,2.93.4c.65,0,1.29-.12,1.94,0l-1.33-.18-2.84-2.86-.18-1.33c.17,4.86,0,9.75.05,14.61l6.33-4.82a32.16,32.16,0,0,0-11.51-1,5.38,5.38,0,0,0-3.54,1.47,5.07,5.07,0,0,0-1.46,3.53c.11,2.48,2.21,5.29,5,5a29,29,0,0,1,6.72.09l-1.33-.17a29,29,0,0,1,3.46.7,5.05,5.05,0,0,0,6.33-4.82l0-11c0-2.6.33-5.44-1.63-7.48a6.15,6.15,0,0,0-4.58-1.74,14.82,14.82,0,0,1-2.21,0l1.33.18c-.63-.1-1.2-.35-1.82-.48,1.08.22.73.33.23,0-.34-.19-1.33-1-.1,0a5.39,5.39,0,0,0-3.53-1.46A5.1,5.1,0,0,0,36.72,65c-1.67,1.83-2.17,5.31,0,7.07Z" transform="translate(-14.12 -1)"/><path class="cls-1" d="M44.43,99.94l-.6-1.68a3.72,3.72,0,0,0-.89-1.7,4.44,4.44,0,0,0-3.26-1.88,3.78,3.78,0,0,0-2,.09l-1.19.5a5,5,0,0,0-1.79,1.8l-.51,1.19a5,5,0,0,0,0,2.66l.59,1.67a3.78,3.78,0,0,0,.9,1.7,4.5,4.5,0,0,0,3.26,1.89,4,4,0,0,0,2-.09l1.19-.51a5,5,0,0,0,1.79-1.79l.51-1.2a5,5,0,0,0,0-2.65Z" transform="translate(-14.12 -1)"/><path class="cls-1" d="M32.51,97.6,32.16,115a5,5,0,0,0,5,5,5.12,5.12,0,0,0,5-5l.16-1.65a5,5,0,0,0-1.46-3.53,5,5,0,0,0-8.54,3.53L32.16,115h10l.35-17.39a5,5,0,0,0-10,0Z" transform="translate(-14.12 -1)"/><path class="cls-1" d="M38.52,104.16a36.67,36.67,0,0,0,11.21-.46L43.4,98.88a76.36,76.36,0,0,1,0,13.94l.18-1.33a2.77,2.77,0,0,1-.11.48l.5-1.2c-.17.34-.12.31.16-.1a2.43,2.43,0,0,1,.91-.83c-.2.06-.43.24-.62.32l1.19-.51a18.81,18.81,0,0,1-4.11,1l1.33-.18a20.68,20.68,0,0,1-3.77.14,5,5,0,0,0-5,5,5.09,5.09,0,0,0,5,5,25.45,25.45,0,0,0,7.57-.79,11.45,11.45,0,0,0,3.64-1.46,7.22,7.22,0,0,0,3.14-5.66,81.65,81.65,0,0,0,0-13.81,5.06,5.06,0,0,0-6.33-4.82c-.52.09-1,.18-1.58.25l1.33-.17a32.48,32.48,0,0,1-8.3,0A4.93,4.93,0,0,0,35,95.62a5.11,5.11,0,0,0-1.47,3.54A5,5,0,0,0,35,102.69a5.86,5.86,0,0,0,3.53,1.47Z" transform="translate(-14.12 -1)"/><path class="cls-1" d="M66.51,51.91a6,6,0,0,1,1.88-.43c-.61,0-.65.07,0,0,.32,0,.65,0,1,0s.64,0,1,0l.39,0c.38,0,.25,0-.37-.06a8.85,8.85,0,0,1,1.88.42l.73.24c1.17.36-.56-.31.06,0s1.15.57,1.7.91a3.41,3.41,0,0,1,.8.54c-.39-.47-.39-.32,0,.07s1,.92,1.46,1.36a10.82,10.82,0,0,0,10.88,2.3c3.25-1,6.3-2.87,9.34-4.41A5,5,0,0,0,99,46.08a5.13,5.13,0,0,0-6.84-1.79L88,46.4c-.69.35-1.42.67-2.1,1s1-.34-.25.1c-.28.1-.55.2-.84.28,0,0-1.28.22-.6.16s-.46,0-.6,0c.94.26-.13-.32.34,0,.67.45-.8-.87.28.16a36.06,36.06,0,0,0-3.52-3,19.81,19.81,0,0,0-16.87-2.82,5,5,0,0,0,2.66,9.65Z" transform="translate(-14.12 -1)"/><path class="cls-1" d="M62.67,81.76l5,.3,2.5.14,1.38.09c.53,0,.44.13,0,0,.31.1,1.33.56.4,0l.61.35c1,.55-.72-.69.12.08l.53.48a28.61,28.61,0,0,0,3.58,3,12,12,0,0,0,5.13,1.71c.88.12,1.75.2,2.63.29.26,0,1.2.24.2,0,.34.09.7.14,1,.22,3.39.8,6.86,2,10.3.7,2.44-.92,4.38-3.41,3.49-6.15-.77-2.38-3.53-4.48-6.15-3.49,0,0-1.24.47-.52.24s-.36,0-.55,0c-.92.07.42.14-.12,0-.35-.09-.7-.15-1-.23-1.41-.34-2.78-.79-4.22-1-1-.15-1.9-.26-2.86-.34-.36,0-.73-.06-1.09-.11.72.09.29,0-.17-.06s-.88-.29-.24,0c-.27-.12-.51-.31-.77-.44-.54-.27.83.77,0,0L81.18,77a29.41,29.41,0,0,0-3.3-2.8,11.78,11.78,0,0,0-5.46-1.82c-3.22-.38-6.51-.43-9.75-.63a5,5,0,0,0-5,5,5.11,5.11,0,0,0,5,5Z" transform="translate(-14.12 -1)"/><path class="cls-1" d="M63.22,111a14.44,14.44,0,0,1,2.24-.67c.51-.11.84-.13.13-.06.42,0,.84-.08,1.26-.1a31.16,31.16,0,0,1,4.73.22l1.08.13c.62.07-.78-.1.2,0l3.31.45a45.42,45.42,0,0,0,4.81.4c.79,0,1.57,0,2.35-.09a6.55,6.55,0,0,0,1-.06c.48-.11-.78-.26.09,0A31.67,31.67,0,0,0,89,112.38a22.16,22.16,0,0,0,11.24-1.09c2.43-1,4.38-3.4,3.49-6.15-.76-2.36-3.54-4.52-6.15-3.5a17,17,0,0,1-2.29.74c-.35.09-.71.16-1.06.23-1.35.27,1,0-.41,0a21.35,21.35,0,0,1-2.4,0c-.47,0-.91-.1-.19,0-.43-.07-.86-.15-1.29-.25a27.34,27.34,0,0,0-5.21-1.2c-1.54-.06-3.08.18-4.62.11-.81,0-1.61-.1-2.41-.19L76.6,101c-.45,0-.93-.12-.2,0-1.9-.26-3.79-.55-5.69-.73a22.67,22.67,0,0,0-10.15,1.06c-2.44.93-4.38,3.41-3.49,6.15.77,2.37,3.53,4.49,6.15,3.49Z" transform="translate(-14.12 -1)"/></svg>